<svg id="svg" version="1.1" xmlns="http://www.w3.org/2000/svg" xmlns:xlink="http://www.w3.org/1999/xlink" width="400" height="400" viewBox="0, 0, 400,400"><g id="svgg"><path id="path0" d="M96.748 109.499 C 42.912 109.590,35.235 109.676,34.802 110.198 C 32.917 112.468,36.319 123.406,41.292 131.065 C 49.484 143.683,65.412 156.690,77.400 160.551 C 84.121 162.716,78.277 162.542,148.860 162.687 C 202.134 162.796,213.999 162.916,214.357 163.349 C 214.927 164.035,212.659 172.377,211.706 173.100 C 211.183 173.497,190.960 173.600,113.701 173.600 L 16.355 173.600 19.433 179.500 C 25.167 190.489,26.861 193.619,28.621 196.474 C 38.511 212.523,50.677 221.698,66.400 224.967 C 73.803 226.506,76.419 226.574,108.518 226.068 C 155.048 225.333,197.056 225.414,197.518 226.239 C 197.857 226.845,195.884 234.652,195.076 235.900 C 194.821 236.294,187.118 236.400,158.776 236.400 C 124.746 236.400,122.800 236.438,122.800 237.102 C 122.800 239.584,126.804 248.206,131.948 256.800 C 138.226 267.289,141.792 271.785,148.556 277.743 C 158.212 286.247,169.612 289.723,188.000 289.770 C 213.311 289.834,279.158 289.182,282.000 288.838 C 340.537 281.766,379.192 244.935,383.214 192.401 C 385.887 157.494,370.182 129.555,341.400 118.014 C 339.640 117.308,337.840 116.585,337.400 116.407 C 330.367 113.557,318.990 111.253,307.000 110.249 C 299.040 109.583,218.047 109.294,96.748 109.499 M293.355 162.034 C 316.643 164.809,327.018 179.972,321.108 202.593 C 315.024 225.877,295.284 237.984,263.400 237.987 C 254.830 237.988,254.701 237.957,255.188 235.990 C 255.700 233.926,257.387 227.544,258.622 223.000 C 262.219 209.769,263.663 204.363,264.074 202.600 C 264.279 201.720,265.520 197.040,266.832 192.200 C 269.781 181.322,270.677 177.993,272.955 169.469 C 273.945 165.766,274.966 162.481,275.226 162.169 C 275.817 161.457,287.763 161.368,293.355 162.034 " stroke="none" fill="#0d2c73" fill-rule="evenodd"></path><path id="path1" d="M0.000 199.600 L 0.000 399.201 199.500 399.100 L 399.000 399.000 399.100 199.500 L 399.201 0.000 199.600 0.000 L 0.000 0.000 0.000 199.600 M305.600 109.156 C 318.041 110.010,329.325 112.367,339.888 116.317 C 346.413 118.757,353.603 122.874,359.000 127.259 C 367.310 134.010,372.627 140.725,377.167 150.200 C 386.971 170.662,386.708 201.376,376.529 224.800 C 362.191 257.795,331.795 281.307,295.286 287.643 C 282.102 289.931,281.190 289.992,259.800 290.010 C 248.800 290.020,227.200 290.264,211.800 290.553 C 196.400 290.841,182.990 291.015,182.000 290.937 C 157.064 288.990,143.099 279.009,128.453 252.668 C 126.884 249.845,125.600 247.466,125.600 247.380 C 125.600 247.294,125.160 246.261,124.622 245.085 C 123.150 241.867,121.521 236.782,121.762 236.154 C 121.941 235.688,127.688 235.600,158.139 235.600 L 194.303 235.600 194.696 234.500 C 194.912 233.895,195.269 232.770,195.490 232.000 C 195.711 231.230,196.130 229.821,196.420 228.869 C 196.870 227.395,196.863 227.081,196.374 226.751 C 195.663 226.271,119.265 226.648,96.032 227.246 C 52.317 228.371,39.852 220.914,19.389 181.400 C 17.680 178.100,16.115 175.185,15.910 174.922 C 15.706 174.659,15.597 174.029,15.669 173.522 L 15.800 172.600 113.700 172.499 C 167.545 172.444,211.600 172.308,211.600 172.197 C 211.600 172.087,212.062 170.260,212.627 168.138 C 213.454 165.027,213.551 164.215,213.127 163.946 C 212.837 163.763,184.070 163.609,149.200 163.606 C 78.133 163.599,83.029 163.799,75.000 160.569 C 64.221 156.234,53.161 147.721,44.769 137.300 C 35.954 126.355,30.916 112.467,34.609 109.291 L 35.667 108.381 167.934 108.583 C 242.612 108.697,302.551 108.947,305.600 109.156 M276.068 162.853 C 275.613 163.021,275.210 163.954,274.858 165.653 C 274.568 167.054,274.187 168.650,274.012 169.200 C 273.836 169.750,273.499 170.920,273.261 171.800 C 271.832 177.098,269.610 185.421,267.386 193.800 C 265.985 199.080,264.458 204.750,263.992 206.400 C 263.527 208.050,262.992 210.030,262.805 210.800 C 262.617 211.570,262.075 213.640,261.600 215.400 C 261.125 217.160,260.588 219.230,260.407 220.000 C 259.903 222.142,258.059 229.005,256.973 232.783 C 256.438 234.643,256.000 236.422,256.000 236.736 C 256.000 237.656,273.133 237.143,279.255 236.039 C 295.642 233.085,307.107 226.658,313.695 216.731 C 323.441 202.049,324.319 183.224,315.729 173.160 C 311.189 167.842,306.282 165.350,296.532 163.410 C 293.196 162.747,277.508 162.319,276.068 162.853 " stroke="none" fill="#fbfbfb" fill-rule="evenodd"></path><path id="path2" d="M399.200 199.400 L 399.000 399.000 199.400 399.201 L -0.200 399.401 199.251 399.501 C 366.560 399.584,398.774 399.513,399.151 399.059 C 399.483 398.659,399.574 346.212,399.500 199.159 L 399.400 -0.200 399.200 199.400 M34.609 109.291 C 33.025 110.653,32.915 112.677,34.164 117.421 C 38.589 134.216,56.480 153.120,75.000 160.569 C 83.029 163.799,78.133 163.599,149.200 163.606 C 184.070 163.609,212.837 163.763,213.127 163.946 C 213.551 164.215,213.454 165.027,212.627 168.138 C 212.062 170.260,211.600 172.087,211.600 172.197 C 211.600 172.308,167.545 172.444,113.700 172.499 L 15.800 172.600 15.669 173.522 C 15.597 174.029,15.706 174.659,15.910 174.922 C 16.115 175.185,17.680 178.100,19.389 181.400 C 39.852 220.914,52.317 228.371,96.032 227.246 C 119.265 226.648,195.663 226.271,196.374 226.751 C 196.863 227.081,196.870 227.395,196.420 228.869 C 196.130 229.821,195.711 231.230,195.490 232.000 C 195.269 232.770,194.912 233.895,194.696 234.500 L 194.303 235.600 158.139 235.600 C 127.688 235.600,121.941 235.688,121.762 236.154 C 121.521 236.782,123.150 241.867,124.622 245.085 C 125.160 246.261,125.600 247.294,125.600 247.380 C 125.600 247.953,131.967 258.805,135.117 263.600 C 141.519 273.347,149.959 281.112,158.718 285.314 C 161.843 286.814,164.384 287.749,164.639 287.494 C 164.737 287.396,163.959 286.999,162.909 286.612 C 154.783 283.616,146.343 277.381,140.262 269.882 C 132.832 260.718,120.887 238.525,122.222 236.364 C 122.355 236.150,137.203 235.997,158.324 235.994 C 178.056 235.991,194.395 235.856,194.633 235.694 C 195.260 235.268,197.340 227.341,197.034 226.544 C 196.747 225.797,120.914 225.979,93.600 226.793 C 66.288 227.606,53.763 224.156,40.605 212.191 C 33.959 206.148,29.526 199.725,21.701 184.800 C 20.490 182.490,18.699 179.109,17.721 177.286 C 16.743 175.463,16.002 173.795,16.074 173.579 C 16.159 173.323,50.264 173.153,113.682 173.093 C 181.273 173.028,211.289 172.871,211.581 172.579 C 212.184 171.976,214.068 165.278,213.922 164.257 L 213.800 163.400 149.000 163.179 C 102.860 163.021,83.676 162.828,82.379 162.506 C 65.311 158.269,46.288 142.655,37.985 126.067 C 33.802 117.708,32.570 109.985,35.331 109.423 C 40.516 108.366,303.407 109.067,312.000 110.160 C 321.857 111.415,330.428 113.364,337.600 115.984 C 373.342 129.037,390.324 163.271,381.958 205.400 C 373.842 246.268,341.380 277.601,297.800 286.632 C 295.820 287.042,294.525 287.443,294.923 287.523 C 296.790 287.897,310.930 283.859,319.125 280.611 C 336.414 273.760,353.582 260.649,364.383 246.048 C 377.786 227.931,384.117 208.639,384.156 185.800 C 384.191 165.256,379.757 150.834,369.273 137.400 C 363.854 130.455,355.834 124.067,346.488 119.253 C 336.206 113.956,321.068 110.218,305.600 109.156 C 302.551 108.947,242.612 108.697,167.934 108.583 L 35.667 108.381 34.609 109.291 M275.698 162.331 C 275.264 162.607,272.911 170.987,267.818 190.400 C 267.097 193.150,265.776 198.100,264.884 201.400 C 262.207 211.304,261.630 213.452,259.402 221.800 C 258.228 226.200,256.892 231.192,256.434 232.893 C 255.043 238.051,254.383 237.600,263.315 237.600 C 295.591 237.600,315.044 225.349,321.002 201.271 C 325.566 182.824,317.579 168.123,300.644 163.803 C 294.665 162.278,277.388 161.258,275.698 162.331 M296.532 163.410 C 310.429 166.174,317.634 171.937,320.657 182.704 C 321.516 185.766,321.857 195.392,321.210 198.369 C 316.512 220.016,303.542 231.661,279.255 236.039 C 273.133 237.143,256.000 237.656,256.000 236.736 C 256.000 236.422,256.438 234.643,256.973 232.783 C 258.059 229.005,259.903 222.142,260.407 220.000 C 260.588 219.230,261.125 217.160,261.600 215.400 C 262.075 213.640,262.617 211.570,262.805 210.800 C 262.992 210.030,263.527 208.050,263.992 206.400 C 264.458 204.750,265.985 199.080,267.386 193.800 C 269.610 185.421,271.832 177.098,273.261 171.800 C 273.499 170.920,273.836 169.750,274.012 169.200 C 274.187 168.650,274.568 167.054,274.858 165.653 C 275.210 163.954,275.613 163.021,276.068 162.853 C 277.508 162.319,293.196 162.747,296.532 163.410 M165.600 287.966 C 166.636 288.556,173.080 290.002,174.471 289.957 C 175.325 289.929,174.758 289.723,172.886 289.381 C 171.284 289.088,169.006 288.568,167.825 288.224 C 165.451 287.534,164.686 287.445,165.600 287.966 M290.800 288.000 L 289.400 288.295 290.800 288.307 C 291.570 288.315,292.650 288.176,293.200 288.000 L 294.200 287.680 293.200 287.693 C 292.650 287.700,291.570 287.838,290.800 288.000 M285.600 288.800 L 284.200 289.095 285.800 289.107 C 286.680 289.115,287.850 288.976,288.400 288.800 C 289.769 288.362,287.683 288.362,285.600 288.800 M278.200 289.600 L 275.800 289.866 278.200 289.903 C 279.520 289.924,281.410 289.797,282.400 289.620 L 284.200 289.300 282.400 289.317 C 281.410 289.327,279.520 289.454,278.200 289.600 M250.900 289.900 C 255.245 289.964,262.355 289.964,266.700 289.900 C 271.045 289.835,267.490 289.782,258.800 289.782 C 250.110 289.782,246.555 289.835,250.900 289.900 M176.044 290.166 C 176.782 290.938,186.593 291.062,209.000 290.580 L 233.400 290.056 210.400 290.267 C 184.638 290.503,184.401 290.502,179.400 290.158 C 177.420 290.022,175.910 290.026,176.044 290.166 " stroke="none" fill="#95a4c1" fill-rule="evenodd"></path><path id="path3" d="M399.700 199.251 C 399.616 366.205,399.512 398.775,399.059 399.151 C 398.662 399.480,345.738 399.626,199.159 399.700 L -0.200 399.801 199.713 399.900 C 359.348 399.980,399.663 399.899,399.815 399.500 C 399.919 399.225,399.958 309.180,399.902 199.400 L 399.799 -0.200 399.700 199.251 " stroke="none" fill="#8c8c8c" fill-rule="evenodd"></path><path id="path4" d="M84.085 109.197 C 40.834 109.375,34.724 109.474,34.391 110.000 C 33.766 110.988,33.558 112.922,33.940 114.200 C 34.247 115.228,34.298 115.066,34.296 113.067 C 34.295 111.537,34.498 110.530,34.887 110.142 C 35.408 109.621,51.630 109.540,168.840 109.475 C 257.236 109.425,287.230 109.319,257.800 109.159 C 207.849 108.887,156.583 108.898,84.085 109.197 M308.000 110.251 C 319.202 111.304,330.796 113.731,337.400 116.407 C 337.840 116.585,339.640 117.308,341.400 118.014 C 366.706 128.161,381.854 150.627,383.329 180.200 C 383.421 182.044,383.463 181.812,383.512 179.200 C 383.568 176.181,382.952 170.387,382.216 167.000 C 377.370 144.709,365.421 129.145,345.800 119.568 C 339.586 116.535,335.514 115.036,328.400 113.162 C 322.060 111.491,308.689 109.543,304.319 109.653 C 303.146 109.683,304.788 109.950,308.000 110.251 M34.427 116.230 C 34.209 122.879,45.245 139.146,56.281 148.444 C 64.413 155.295,78.143 162.570,82.546 162.359 C 83.124 162.332,82.947 162.188,82.000 161.915 C 77.174 160.525,74.959 159.685,71.400 157.897 C 54.558 149.436,39.784 133.278,35.380 118.506 C 34.871 116.798,34.442 115.773,34.427 116.230 M275.226 162.169 C 274.966 162.481,273.945 165.766,272.955 169.469 C 271.966 173.171,270.720 177.820,270.186 179.800 C 269.652 181.780,268.038 187.810,266.600 193.200 C 265.162 198.590,263.628 204.289,263.193 205.865 C 262.432 208.616,262.211 209.922,262.568 209.566 C 262.730 209.403,265.154 200.556,267.818 190.400 C 272.881 171.101,275.264 162.602,275.698 162.297 C 275.974 162.104,280.250 162.017,285.200 162.104 C 290.150 162.191,293.390 162.126,292.400 161.961 C 288.918 161.378,275.750 161.537,275.226 162.169 M83.867 162.800 C 83.977 162.910,113.257 163.090,148.933 163.200 L 213.800 163.400 213.922 164.257 C 214.068 165.278,212.184 171.976,211.581 172.579 C 211.289 172.871,181.338 173.029,113.906 173.094 C 55.468 173.151,16.505 173.335,16.284 173.556 C 16.061 173.779,16.619 175.233,17.708 177.262 C 18.693 179.098,20.490 182.490,21.701 184.800 C 29.526 199.725,33.959 206.148,40.605 212.191 C 53.763 224.156,66.288 227.606,93.600 226.793 C 120.914 225.979,196.747 225.797,197.034 226.544 C 197.340 227.341,195.260 235.268,194.633 235.694 C 194.395 235.856,178.129 235.991,158.487 235.994 C 125.421 236.000,122.756 236.050,122.517 236.672 C 121.407 239.565,132.472 260.274,140.262 269.882 C 148.835 280.454,161.768 288.063,173.400 289.379 C 174.543 289.508,173.601 289.179,171.200 288.610 C 160.469 286.069,153.317 282.214,144.836 274.400 C 138.564 268.621,127.528 250.881,123.812 240.602 C 123.255 239.063,122.800 237.488,122.800 237.102 C 122.800 236.438,124.746 236.400,158.776 236.400 C 187.118 236.400,194.821 236.294,195.076 235.900 C 195.884 234.652,197.857 226.845,197.518 226.239 C 197.056 225.414,155.048 225.333,108.518 226.068 C 76.419 226.574,73.803 226.506,66.400 224.967 C 50.677 221.698,38.511 212.523,28.621 196.474 C 26.861 193.619,25.167 190.489,19.433 179.500 L 16.355 173.600 113.701 173.600 C 190.960 173.600,211.183 173.497,211.706 173.100 C 212.726 172.326,214.943 163.972,214.300 163.328 C 213.895 162.924,200.635 162.799,148.729 162.710 C 112.945 162.650,83.757 162.690,83.867 162.800 M297.227 162.999 C 314.267 166.396,321.898 175.398,322.049 192.279 C 322.096 197.457,322.123 197.639,322.486 195.200 C 323.925 185.523,319.534 173.837,312.524 168.691 C 308.345 165.624,299.593 162.331,295.902 162.438 C 295.005 162.463,295.417 162.638,297.227 162.999 M383.734 186.400 C 383.734 188.050,383.805 188.725,383.891 187.900 C 383.978 187.075,383.978 185.725,383.891 184.900 C 383.805 184.075,383.734 184.750,383.734 186.400 M383.096 193.854 C 382.928 196.304,382.427 200.334,381.981 202.809 C 381.535 205.285,381.234 207.501,381.311 207.734 C 381.763 209.088,383.697 195.160,383.524 191.800 C 383.423 189.840,383.344 190.217,383.096 193.854 M320.918 201.558 C 315.318 225.133,295.392 237.600,263.315 237.600 C 254.527 237.600,255.108 237.899,256.161 233.920 C 256.470 232.754,257.654 228.320,258.794 224.066 C 259.934 219.813,260.784 216.251,260.684 216.151 C 260.584 216.051,260.300 216.741,260.051 217.685 C 259.803 218.628,259.232 220.750,258.782 222.400 C 257.697 226.382,255.615 234.250,255.186 235.990 C 254.702 237.956,254.831 237.988,263.400 237.987 C 292.504 237.984,310.560 228.504,318.991 208.800 C 320.347 205.630,322.178 199.134,321.927 198.381 C 321.845 198.135,321.391 199.565,320.918 201.558 M380.442 210.400 C 380.048 212.227,376.941 221.735,375.801 224.600 C 375.586 225.139,375.615 225.269,375.887 225.000 C 376.927 223.973,381.465 209.765,381.092 208.703 C 380.995 208.427,380.702 209.190,380.442 210.400 M261.412 212.612 C 261.021 214.055,260.786 215.320,260.890 215.423 C 260.993 215.527,261.398 214.431,261.788 212.988 C 262.179 211.545,262.414 210.280,262.310 210.177 C 262.207 210.073,261.802 211.169,261.412 212.612 M372.857 230.581 C 355.819 264.349,325.042 283.610,279.200 289.194 L 276.200 289.560 279.800 289.358 C 314.169 287.430,348.716 268.750,366.271 242.600 C 369.904 237.188,375.940 226.206,375.515 225.782 C 375.429 225.695,374.233 227.855,372.857 230.581 M248.500 289.496 C 249.765 289.575,251.835 289.575,253.100 289.496 C 254.365 289.416,253.330 289.351,250.800 289.351 C 248.270 289.351,247.235 289.416,248.500 289.496 M259.500 289.498 C 261.315 289.572,264.285 289.572,266.100 289.498 C 267.915 289.423,266.430 289.363,262.800 289.363 C 259.170 289.363,257.685 289.423,259.500 289.498 M178.000 290.083 C 181.177 290.428,186.057 290.421,218.200 290.019 L 243.400 289.704 209.400 289.752 C 190.700 289.778,176.570 289.927,178.000 290.083 " stroke="none" fill="#73849f" fill-rule="evenodd"></path></g></svg>